<svg xmlns="http://www.w3.org/2000/svg" width="283.984" height="71.94" viewBox="0 0 283.984 71.94"><path d="M145.5 67.433a.958.958 0 0 0 .432-.688 1.064 1.064 0 0 0-.146-.666.9.9 0 0 0-.55-.455.758.758 0 0 0-.213-.03 1.044 1.044 0 0 0-.59.208 7.43 7.43 0 0 1-.874.476 4.227 4.227 0 0 1-1.04.332 1.415 1.415 0 0 1-.258.025 1.038 1.038 0 0 1-.306-.044.618.618 0 0 1-.348-.35 3.045 3.045 0 0 1-.23-1.09 7.122 7.122 0 0 1 .112-1.54.76.76 0 0 0-.208-.71 1.178 1.178 0 0 0-.606-.317 1.158 1.158 0 0 0-.128-.008 1.39 1.39 0 0 0-.555.114.875.875 0 0 0-.485.54 7.61 7.61 0 0 1-.914 2 8.137 8.137 0 0 1-1.73 1.94 2.345 2.345 0 0 1-.82.458 1.72 1.72 0 0 1-.48.078 1 1 0 0 1-.2-.02.658.658 0 0 1-.5-.443 2.86 2.86 0 0 1-.168-.722 6.144 6.144 0 0 1-.037-.96c.01-.346.036-.7.074-1.046a7.66 7.66 0 0 1 .157-.953.778.778 0 0 0-.218-.856.987.987 0 0 0-.65-.247h-.077a1.238 1.238 0 0 0-.61.22 1.084 1.084 0 0 0-.42.616 8.39 8.39 0 0 0-.183.958 9.678 9.678 0 0 0-.093 1.287 10.307 10.307 0 0 0 .077 1.374 4.656 4.656 0 0 0 .322 1.25 2.7 2.7 0 0 0 .777 1.013 2.446 2.446 0 0 0 1.14.485 3.2 3.2 0 0 0 .482.036 3.8 3.8 0 0 0 1.08-.166 5.07 5.07 0 0 0 1.617-.863 7.592 7.592 0 0 0 1.058-1.014q.32-.363.58-.708.036.125.076.233a2.9 2.9 0 0 0 .323.614 2.048 2.048 0 0 0 1.27.77 3.726 3.726 0 0 0 .732.073 3.447 3.447 0 0 0 .753-.083 9.84 9.84 0 0 0 1.448-.5 6.428 6.428 0 0 0 1.124-.62zm4.3-8.484a1.822 1.822 0 0 0-.547-.082 2.248 2.248 0 0 0-.285.02 6.073 6.073 0 0 0-1.257.282 10.264 10.264 0 0 0-1.2.49 10.743 10.743 0 0 0-1.078.6 10.3 10.3 0 0 0-.875.615 4.11 4.11 0 0 0-1.056 1.09 1.867 1.867 0 0 0-.318 1.12 1.624 1.624 0 0 0 .476 1.01 2.76 2.76 0 0 0 1.173.676c.512.182.99.358 1.43.528a4.22 4.22 0 0 1 1 .527.838.838 0 0 1 .306.633 1.756 1.756 0 0 1-.046.534 2.443 2.443 0 0 1-.243.61 5.325 5.325 0 0 1-.84 1.158 7.586 7.586 0 0 1-1.167 1.04.493.493 0 0 1-.236.09h-.023a.3.3 0 0 1-.177-.043 1.248 1.248 0 0 0-.582-.165.857.857 0 0 0-.35.073.99.99 0 0 0-.547.577 1.13 1.13 0 0 0 .7 1.437 2.475 2.475 0 0 0 .888.17q.09 0 .182-.008a2.193 2.193 0 0 0 1.054-.37 8.482 8.482 0 0 0 1.69-1.416 8.69 8.69 0 0 0 1.158-1.618 4.078 4.078 0 0 0 .423-1.07 3.713 3.713 0 0 0 .1-1.184 3.228 3.228 0 0 0-.3-1.112 2.373 2.373 0 0 0-.81-.953 6.822 6.822 0 0 0-1.374-.7c-.388-.138-.793-.3-1.2-.475a.6.6 0 0 1-.37-.268.807.807 0 0 1 .392-.457 5.7 5.7 0 0 1 .743-.508c.292-.17.592-.327.89-.465a8.34 8.34 0 0 1 .867-.346 3.24 3.24 0 0 1 .58-.143 2.94 2.94 0 0 0 .562.217 1.08 1.08 0 0 0 .28.04.79.79 0 0 0 .4-.1 1.1 1.1 0 0 0 .55-1.038.983.983 0 0 0-.336-.656 1.468 1.468 0 0 0-.627-.36zm-17.938 8.95l-.383-.536q-.2-.277-.38-.547c-.12-.18-.216-.33-.29-.454l-.185-.3-.014-.023.05-.018.3-.112a.857.857 0 0 0 .5-.5 1.22 1.22 0 0 0 .08-.49v-.028l-.007-.025a.96.96 0 0 0-.55-.7 1.178 1.178 0 0 0-.383-.067.935.935 0 0 0-.237.03l-.4.122q-.128.04-.27.076c-.234-.424-.49-.92-.762-1.478q-.464-.953-.968-2.01t-1.02-2.158c-.345-.732-.7-1.437-1.04-2.1a.954.954 0 0 0-.475-.464 1.067 1.067 0 0 0-.4-.074 1.312 1.312 0 0 0-.2.016.986.986 0 0 0-.69.376.957.957 0 0 0-.2.576c-.128.24-.285.584-.467 1.02q-.3.71-.654 1.63l-.764 1.97-.814 2.1q-.407 1.05-.8 2.02-.37.914-.676 1.638a2.84 2.84 0 0 1-.382.142q-.262.077-.505.153a.884.884 0 0 0-.745.482 1.09 1.09 0 0 0-.114.34 1.184 1.184 0 0 0-.016.264.793.793 0 0 0 .578.712 1.76 1.76 0 0 0 .365.066c-.015.032-.03.065-.044.1q-.1.24-.19.472a1.414 1.414 0 0 0-.11.645.912.912 0 0 0 .39.646.79.79 0 0 0 .524.182h.08a1.325 1.325 0 0 0 .58-.17 1.088 1.088 0 0 0 .533-.635 1.79 1.79 0 0 0 .073-.5q.176-.388.326-.766.134-.336.25-.636 1.682-.533 3.485-1.083c1.19-.362 2.452-.76 3.755-1.186l.145.224q.107.17.175.3c.1.185.222.392.37.616s.292.444.443.67.306.446.458.65a5.834 5.834 0 0 0 .417.505 1.048 1.048 0 0 0 .794.376 1.177 1.177 0 0 0 .775-.273.825.825 0 0 0 .292-.663 1.13 1.13 0 0 0-.306-.733 4.59 4.59 0 0 1-.296-.387zm-5.424-2.546l-1.177.365-.443.136-1.59.49-.995.3.606-1.56q.424-1.09.847-2.194t.84-2.15q.3-.748.558-1.4c.417.847.83 1.738 1.23 2.654.44 1.012.914 2 1.412 2.952zM170.28 58a1.513 1.513 0 0 0 .958-.334 1.307 1.307 0 0 0 .42-.58 1.523 1.523 0 0 0 .09-.63 1.44 1.44 0 0 0-.192-.618 1.257 1.257 0 0 0-.484-.467 1.487 1.487 0 0 0-.747-.2c-.042 0-.084 0-.128.006a1.41 1.41 0 0 0-.823.33 1.31 1.31 0 0 0-.524 1.116 1.43 1.43 0 0 0 .48 1.018 1.5 1.5 0 0 0 .95.36zm44.035 3.207a.833.833 0 0 0-.41-.1 1.093 1.093 0 0 0-.383.075 9.866 9.866 0 0 1-1.145.36c-.44.11-.89.208-1.34.288s-.885.147-1.3.2a7.613 7.613 0 0 1-.91.068h-.13l.015-.02a7.26 7.26 0 0 1 .552-.724q.307-.356.627-.694t.61-.64q.287-.3.51-.536a3.166 3.166 0 0 0 .748-1.248 1.458 1.458 0 0 0-.874-1.788 2.516 2.516 0 0 0-.957-.17c-.1 0-.2 0-.3.013q-.216.018-.52.03l-.39.02-.247.01-.648.03q-.27.013-.482.013a1.1 1.1 0 0 0-.512-.12h-.1a1.174 1.174 0 0 0-.64.248.9.9 0 0 0-.405.832A.97.97 0 0 0 206 58a1.14 1.14 0 0 0 .772.287h.282q.317 0 .783-.016.694-.023 1.315-.07h.112a.386.386 0 0 1 .167.02.6.6 0 0 1-.217.34c-.16.17-.35.37-.572.6s-.46.48-.714.75-.513.57-.77.883-.5.64-.72.965a2.055 2.055 0 0 0-.343.815 1.223 1.223 0 0 0 .088.732 1.366 1.366 0 0 0 1.218.794 6.374 6.374 0 0 0 .666.03c.29 0 .616-.015.966-.045.636-.056 1.287-.144 1.933-.26s1.27-.256 1.85-.414a10.03 10.03 0 0 0 1.38-.463.84.84 0 0 0 .547-.555 1.21 1.21 0 0 0 .022-.633.92.92 0 0 0-.447-.548zm47.3-11.083a1.186 1.186 0 0 0 .617-.16 1.14 1.14 0 0 0 .43-.42l.02-.036a1.408 1.408 0 0 0 .464.87 1.5 1.5 0 0 0 .952.357 1.513 1.513 0 0 0 .957-.334 1.307 1.307 0 0 0 .42-.58 1.52 1.52 0 0 0 .09-.63 1.43 1.43 0 0 0-.193-.618 1.256 1.256 0 0 0-.484-.467 1.49 1.49 0 0 0-.747-.2q-.062 0-.127.005a1.406 1.406 0 0 0-.822.33 1.567 1.567 0 0 0-.37.437 1.006 1.006 0 0 0-.25-.44 1.037 1.037 0 0 0-.788-.287c-.05 0-.1 0-.16.007l-.918.07-.752.06-1.232.1-.9.068q-1.154.09-2.417.2t-2.473.2q-1.212.094-2.3.17t-1.932.14a.873.873 0 0 0-.7.31.972.972 0 0 0 .1 1.322.967.967 0 0 0 .718.294h.1c.31-.01.715-.03 1.2-.062s1-.068 1.545-.11 1.1-.09 1.673-.14q.707-.063 1.332-.126.054.916.11 1.968.066 1.2.15 2.4c.056.786.124 1.56.2 2.3a16.573 16.573 0 0 0 .3 1.926 1.418 1.418 0 0 0 .532.944 1.645 1.645 0 0 0 .747.312 1.184 1.184 0 0 0 .128.007 1.117 1.117 0 0 0 .642-.2.937.937 0 0 0 .39-.8 1.035 1.035 0 0 0-.47-.876c-.045-.17-.09-.42-.14-.742q-.085-.583-.164-1.333t-.148-1.617l-.136-1.725c-.046-.58-.08-1.122-.1-1.632l-.045-1.09c.94-.1 1.78-.173 2.5-.23q1.13-.086 1.758-.118a1.22 1.22 0 0 0 .618.19zm21.935 1.6a2.69 2.69 0 0 0-.585-.23 1.914 1.914 0 0 0-.523-.07 2.37 2.37 0 0 0-.3.02 5.166 5.166 0 0 0-1.082.27 10.038 10.038 0 0 0-1.18.508c-.393.2-.78.415-1.15.642a10.07 10.07 0 0 0-.99.686l-.142.124v-.336q.01-.25.03-.484t.045-.406a.715.715 0 0 0-.225-.662 1.262 1.262 0 0 0-.51-.28 1.415 1.415 0 0 0-.23-.02 1.31 1.31 0 0 0-.448.076.752.752 0 0 0-.476.54c-.04.122-.08.248-.124.368a2.15 2.15 0 0 1-.153.33.53.53 0 0 0-.05.44.446.446 0 0 0 .165.222q-.006.3 0 .67.007.47.048.99l.008.1.03.38c-.23.1-.488.215-.79.36-.446.216-.928.425-1.432.62a11.9 11.9 0 0 1-1.53.477 3.972 3.972 0 0 1-.922.115 3.08 3.08 0 0 1-.465-.035.785.785 0 0 1-.537-.233.676.676 0 0 1-.154-.4 5.87 5.87 0 0 0 1.277-.437 7.4 7.4 0 0 0 1.4-.857 5.833 5.833 0 0 0 1.112-1.13 3.354 3.354 0 0 0 .613-1.36 5 5 0 0 0 .06-.754 2.9 2.9 0 0 0-.094-.75 2.133 2.133 0 0 0-.3-.66 1.514 1.514 0 0 0-.59-.5 1.682 1.682 0 0 0-.67-.18h-.153a2.964 2.964 0 0 0-.51.046 3.25 3.25 0 0 0-.636.178 3.76 3.76 0 0 0-.546.265 2.572 2.572 0 0 0-.516.4c-.178.168-.358.358-.534.562a8.133 8.133 0 0 0-.57.76 9.01 9.01 0 0 0-.588 1.022 9.22 9.22 0 0 0-.507 1.26 6.493 6.493 0 0 0-.29 1.482 1.864 1.864 0 0 0-.008.2 4.373 4.373 0 0 0-.45.152c-.37.148-.752.316-1.135.5s-.74.35-1.086.508a5.16 5.16 0 0 1-.812.31 1.82 1.82 0 0 1-.447.07.48.48 0 0 1-.18-.028.53.53 0 0 1-.25-.346 2.408 2.408 0 0 1-.11-.48 6.07 6.07 0 0 1-.054-.682 5.313 5.313 0 0 1 .155-1.315 7.96 7.96 0 0 1 .346-1.14.647.647 0 0 0-.086-.713 1.12 1.12 0 0 0-.577-.35 1.327 1.327 0 0 0-.35-.048 1.453 1.453 0 0 0-.227.018 1.06 1.06 0 0 0-.565.276 2.347 2.347 0 0 0-.337.52 4.635 4.635 0 0 0-.215.487.986.986 0 0 0-.034.34.4.4 0 0 0 .1.237c-.056.234-.1.49-.14.763a7.447 7.447 0 0 0-.073 1.05 7.237 7.237 0 0 0 .042.9 3.967 3.967 0 0 0 .19.923 2.283 2.283 0 0 0 1.293 1.52 2.24 2.24 0 0 0 .726.11 4.683 4.683 0 0 0 1.393-.25c.28-.09.61-.215.982-.37s.733-.312 1.09-.472.68-.3 1-.42c.114-.045.217-.082.312-.114a2.23 2.23 0 0 0 .426.464 2.744 2.744 0 0 0 1.6.595c.192.02.386.028.58.028a6.552 6.552 0 0 0 1.367-.147 12.13 12.13 0 0 0 1.817-.534c.56-.216 1.08-.442 1.55-.672l.4-.194a.79.79 0 0 0 .163.173.98.98 0 0 0 .606.212h.08a.952.952 0 0 0 .91-1c.01-.17.03-.337.054-.5a1.77 1.77 0 0 1 .157-.47 1.45 1.45 0 0 1 .264-.358 4.164 4.164 0 0 1 .513-.45c.258-.186.536-.378.83-.57a9.39 9.39 0 0 1 .885-.512c.3-.153.592-.286.86-.4a3.952 3.952 0 0 1 .686-.22.624.624 0 0 1 .2-.035h.058a1.448 1.448 0 0 1 .337.084 1.06 1.06 0 0 0 .416.093.752.752 0 0 0 .3-.06.946.946 0 0 0 .465-.435 1.172 1.172 0 0 0 .147-.68.9.9 0 0 0-.448-.697zm-12.982 1.818a5.812 5.812 0 0 1 .695-1.032 3.39 3.39 0 0 1 .534-.52 1.068 1.068 0 0 1 .32-.13.508.508 0 0 1 .118-.016.233.233 0 0 1 .11.024 1.063 1.063 0 0 1 .01.546 1.5 1.5 0 0 1-.287.6 3.31 3.31 0 0 1-.613.608 5 5 0 0 1-.817.516q-.21.106-.412.186a5.123 5.123 0 0 1 .34-.782zm-23.868 4.25a1.278 1.278 0 0 0-.77-.234 1.915 1.915 0 0 0-.22.013 4.54 4.54 0 0 0-.644.156q-.345.107-.728.236t-.77.28q-.38.15-.732.3a2.21 2.21 0 0 1-.577.14h-.01a.576.576 0 0 1-.43-.187 3.8 3.8 0 0 1-.623-1.01 9.177 9.177 0 0 1-.51-1.417 2.618 2.618 0 0 0-.687-1.212 1.353 1.353 0 0 0-.94-.37 1.6 1.6 0 0 0-.182.012 4.15 4.15 0 0 0-2.383 1.412l-.394.412s-.3.323-.455.495-.3.345-.447.517-.26.32-.37.46l-.3-.658q-.2-.424-.387-.81a1.852 1.852 0 0 0-.908-.9 1.69 1.69 0 0 0-.584-.1 1.8 1.8 0 0 0-.44.057 2.75 2.75 0 0 0-1.1.628 5.324 5.324 0 0 0-.83.917q-.25.354-.52.743t-.532.71c-.08.095-.157.193-.227.292-.034-.34-.06-.693-.08-1.053q-.055-.94-.12-1.75a.885.885 0 0 0-.363-.734.985.985 0 0 0-.58-.19A1.01 1.01 0 0 0 226.793 56c.01.29.024.647.045 1.083s.048.9.08 1.393c.023.354.055.712.09 1.072-.2.115-.4.222-.622.326a4.232 4.232 0 0 1-1.04.333 1.434 1.434 0 0 1-.258.024 1.032 1.032 0 0 1-.305-.044.615.615 0 0 1-.348-.35 3.043 3.043 0 0 1-.23-1.09 7.12 7.12 0 0 1 .112-1.54.76.76 0 0 0-.21-.71 1.175 1.175 0 0 0-.605-.317 1.243 1.243 0 0 0-.127-.007 1.39 1.39 0 0 0-.555.114.877.877 0 0 0-.485.54 7.608 7.608 0 0 1-.914 2 8.133 8.133 0 0 1-1.73 1.94 2.35 2.35 0 0 1-.822.457 1.72 1.72 0 0 1-.48.078.993.993 0 0 1-.2-.02.658.658 0 0 1-.5-.443 2.87 2.87 0 0 1-.167-.722 6.178 6.178 0 0 1-.036-.96c.012-.345.037-.7.074-1.046a7.786 7.786 0 0 1 .157-.953.777.777 0 0 0-.22-.855.985.985 0 0 0-.647-.247h-.078a1.234 1.234 0 0 0-.61.22 1.083 1.083 0 0 0-.42.614 8.476 8.476 0 0 0-.184.958 9.736 9.736 0 0 0-.093 1.287 10.317 10.317 0 0 0 .078 1.373 4.658 4.658 0 0 0 .323 1.25 2.7 2.7 0 0 0 .778 1.013 2.446 2.446 0 0 0 1.14.485 3.2 3.2 0 0 0 .483.036 3.79 3.79 0 0 0 1.08-.166 5.066 5.066 0 0 0 1.618-.863 7.54 7.54 0 0 0 1.06-1.013c.212-.242.406-.48.58-.708q.036.125.076.233a2.913 2.913 0 0 0 .322.613 2.05 2.05 0 0 0 1.27.77 3.733 3.733 0 0 0 .732.073 3.433 3.433 0 0 0 .753-.083 9.86 9.86 0 0 0 1.448-.5l.082-.037a1.224 1.224 0 0 0 .2.392 1.092 1.092 0 0 0 .507.37 1.116 1.116 0 0 0 .374.062 1.34 1.34 0 0 0 .376-.056 1.06 1.06 0 0 0 .647-.545q.207-.39.5-.915a7.632 7.632 0 0 1 .57-.878q.362-.484.733-.955a9.066 9.066 0 0 0 .673-.978.888.888 0 0 1 .512-.47.475.475 0 0 1 .105-.017.113.113 0 0 1 .1.07 9.04 9.04 0 0 1 .5 1.083 9.508 9.508 0 0 0 .578 1.224 1.025 1.025 0 0 0 .488.406 1.26 1.26 0 0 0 .47.095h.09a1.32 1.32 0 0 0 .53-.16 1.12 1.12 0 0 0 .43-.415c.167-.248.36-.513.568-.783s.417-.53.622-.774.39-.45.558-.625a3.344 3.344 0 0 1 .378-.35 1.97 1.97 0 0 1 .883-.566.353.353 0 0 1 .2.255c.192.558.405 1.092.633 1.587a4.17 4.17 0 0 0 .89 1.286 2.2 2.2 0 0 0 1.578.69h.062a4.508 4.508 0 0 0 1.675-.38c.4-.174.81-.326 1.21-.454.373-.12.647-.2.817-.242a.7.7 0 0 1 .1.01.42.42 0 0 0 .156.024H246.056a1.025 1.025 0 0 0 .545-.264 1.484 1.484 0 0 0 .317-.394.822.822 0 0 0-.217-1.155zm-58.04.12a2.556 2.556 0 0 0-.552-.057 4.1 4.1 0 0 0-.9.112 8.112 8.112 0 0 0-1.566.5 11.55 11.55 0 0 0-1.318.66 4.968 4.968 0 0 0-.638.455l-.085.073c-.005-.364-.005-.732 0-1.1.008-.575.027-1.142.056-1.687s.062-1.064.1-1.547.07-.915.106-1.3a2.3 2.3 0 0 1 .112-.3 1.453 1.453 0 0 0 .122-.567.738.738 0 0 0-.3-.67.976.976 0 0 0-.58-.18h-.1a1.053 1.053 0 0 0-.94.535 1.68 1.68 0 0 0-.223.557q-.052.26-.088.592c-.05.372-.1.823-.136 1.335s-.075 1.063-.1 1.65-.044 1.2-.048 1.824.008 1.242.034 1.83.07 1.15.132 1.67c.025.213.055.41.088.6-.213.093-.45.2-.724.333-.446.214-.928.423-1.432.618a11.95 11.95 0 0 1-1.53.477 3.97 3.97 0 0 1-.92.116 3.077 3.077 0 0 1-.466-.034.785.785 0 0 1-.536-.233.676.676 0 0 1-.154-.4 5.885 5.885 0 0 0 1.278-.437 7.416 7.416 0 0 0 1.4-.856 5.837 5.837 0 0 0 1.112-1.13 3.35 3.35 0 0 0 .615-1.36 5.015 5.015 0 0 0 .058-.754 2.907 2.907 0 0 0-.092-.75 2.134 2.134 0 0 0-.3-.66 1.514 1.514 0 0 0-.588-.5 1.683 1.683 0 0 0-.67-.178h-.154a2.975 2.975 0 0 0-.51.045 3.247 3.247 0 0 0-.636.178 3.78 3.78 0 0 0-.547.266 2.555 2.555 0 0 0-.515.4c-.18.17-.358.36-.534.563a8.042 8.042 0 0 0-.57.758 8.972 8.972 0 0 0-.587 1.023 9.258 9.258 0 0 0-.507 1.26 6.5 6.5 0 0 0-.288 1.483 1.9 1.9 0 0 0-.01.2 4.305 4.305 0 0 0-.448.152c-.372.15-.754.317-1.137.5s-.74.35-1.086.508a5.166 5.166 0 0 1-.813.31 1.826 1.826 0 0 1-.448.07.488.488 0 0 1-.18-.028.53.53 0 0 1-.25-.346 2.447 2.447 0 0 1-.123-.49 6.054 6.054 0 0 1-.054-.68 5.3 5.3 0 0 1 .154-1.32 7.915 7.915 0 0 1 .345-1.14.648.648 0 0 0-.087-.713 1.12 1.12 0 0 0-.577-.35 1.34 1.34 0 0 0-.35-.048 1.44 1.44 0 0 0-.227.017 1.06 1.06 0 0 0-.566.275 2.308 2.308 0 0 0-.338.52 4.64 4.64 0 0 0-.215.487 1 1 0 0 0-.033.34.4.4 0 0 0 .1.236c-.056.235-.1.49-.14.763a7.443 7.443 0 0 0-.073 1.048c0 .12 0 .26.007.406a7.66 7.66 0 0 1-1.136.615 14.077 14.077 0 0 1-1.5.562 17.61 17.61 0 0 1-1.72.445 17.277 17.277 0 0 1-1.8.276c-.083.006-.166.01-.243.01a1.62 1.62 0 0 1-.28-.02.467.467 0 0 1-.253-.122.553.553 0 0 1-.13-.4 4.372 4.372 0 0 1 .13-.99c.368-1.76.648-3.478.833-5.108a43.706 43.706 0 0 0 .292-4.572.842.842 0 0 0-.32-.733 1.07 1.07 0 0 0-.662-.23 1.083 1.083 0 0 0-.687.255.942.942 0 0 0-.348.738c-.055 1.14-.158 2.514-.305 4.077a45.387 45.387 0 0 1-.833 5.193 7.23 7.23 0 0 0-.213 2.12 1.81 1.81 0 0 0 1.544 1.74 4.945 4.945 0 0 0 .872.068q.182 0 .38-.01c.647-.05 1.325-.136 2.02-.256a19.452 19.452 0 0 0 2.052-.47 14.776 14.776 0 0 0 1.91-.692 9.535 9.535 0 0 0 .908-.46 1.9 1.9 0 0 0 1 .907 2.246 2.246 0 0 0 .727.11 4.682 4.682 0 0 0 1.392-.25c.28-.09.61-.214.98-.37s.734-.31 1.09-.472.68-.3.995-.42c.116-.044.22-.08.313-.113a2.23 2.23 0 0 0 .426.464 2.743 2.743 0 0 0 1.6.595c.192.02.386.028.58.028a6.557 6.557 0 0 0 1.366-.147 12.1 12.1 0 0 0 1.817-.534c.56-.216 1.08-.442 1.55-.672q.646-.318 1.074-.506a.934.934 0 0 0 .1.006.764.764 0 0 0 .117-.01 1.023 1.023 0 0 0 .594-.316.988.988 0 0 0 .255-.734c-.03-.187-.05-.35-.07-.522a2.752 2.752 0 0 1-.013-.5l.046-.168c.014-.056.03-.116.05-.178a1.64 1.64 0 0 1 .37-.55 4.113 4.113 0 0 1 .584-.492 7.1 7.1 0 0 1 1.3-.712 6.135 6.135 0 0 1 1.16-.376 2.176 2.176 0 0 1 .377-.04.7.7 0 0 1 .11.007.263.263 0 0 1 .164.08.327.327 0 0 1 .08.28 2.915 2.915 0 0 1-.173.6 4.768 4.768 0 0 1-.385.83 7.456 7.456 0 0 1-.58.87 6.62 6.62 0 0 1-1.18 1.23c-.47.382-1.005.8-1.594 1.238a.927.927 0 0 0-.358.655.98.98 0 0 0 .784 1.105.842.842 0 0 0 .167.017.98.98 0 0 0 .6-.227c.55-.41 1.1-.836 1.634-1.268a9.562 9.562 0 0 0 1.474-1.486 9.414 9.414 0 0 0 .747-1.1 8.085 8.085 0 0 0 .542-1.1 4.1 4.1 0 0 0 .42-1.82 1.96 1.96 0 0 0-.554-1.41 2.227 2.227 0 0 0-1.02-.494zm-11.905 2.9a5.81 5.81 0 0 1 .695-1.032 3.4 3.4 0 0 1 .533-.52 1.066 1.066 0 0 1 .32-.13.5.5 0 0 1 .118-.016.235.235 0 0 1 .11.024 1.06 1.06 0 0 1 .01.547 1.5 1.5 0 0 1-.286.6 3.316 3.316 0 0 1-.613.61 5.023 5.023 0 0 1-.816.515q-.21.106-.412.186a5.1 5.1 0 0 1 .34-.79zm22.6.638a.75.75 0 0 0-.344-.08 1.072 1.072 0 0 0-.392.08c-.3.118-.687.29-1.147.512s-.927.424-1.432.62a11.96 11.96 0 0 1-1.53.476 3.974 3.974 0 0 1-.92.116 3.087 3.087 0 0 1-.467-.035.784.784 0 0 1-.535-.234.678.678 0 0 1-.154-.4 5.88 5.88 0 0 0 1.28-.437 7.392 7.392 0 0 0 1.4-.858 5.83 5.83 0 0 0 1.11-1.13 3.348 3.348 0 0 0 .615-1.36 4.95 4.95 0 0 0 .06-.753 2.87 2.87 0 0 0-.094-.75 2.134 2.134 0 0 0-.3-.66 1.514 1.514 0 0 0-.587-.5 1.68 1.68 0 0 0-.67-.18h-.155a2.975 2.975 0 0 0-.51.046 3.29 3.29 0 0 0-.637.178 3.8 3.8 0 0 0-.546.265 2.557 2.557 0 0 0-.516.4c-.178.168-.357.357-.534.56a8.122 8.122 0 0 0-.57.76 9 9 0 0 0-.588 1.023 9.274 9.274 0 0 0-.507 1.26 6.477 6.477 0 0 0-.29 1.482 2.776 2.776 0 0 0 .9 2.622 2.745 2.745 0 0 0 1.6.595c.193.018.387.027.58.027a6.554 6.554 0 0 0 1.367-.148 12.135 12.135 0 0 0 1.817-.535c.56-.216 1.08-.442 1.548-.672s.833-.4 1.127-.53a.87.87 0 0 0 .577-.622.934.934 0 0 0-.127-.732 1.015 1.015 0 0 0-.427-.414zm-6.234-1.906a5.778 5.778 0 0 1 .696-1.032 3.4 3.4 0 0 1 .533-.52 1.066 1.066 0 0 1 .32-.13.5.5 0 0 1 .116-.016.234.234 0 0 1 .11.023 1.065 1.065 0 0 1 .01.545 1.507 1.507 0 0 1-.286.6 3.326 3.326 0 0 1-.613.608 5.035 5.035 0 0 1-.817.516q-.21.105-.412.185a5.127 5.127 0 0 1 .34-.785z" fill="#525252"/><path d="M18.747 30.91c4.005 0 7.05-3.678 7.05-8.453s-3.15-8.52-7.05-8.52c-3.846 0-7.05 3.874-7.05 8.454 0 4.84 3.1 8.52 7.05 8.52m19.922 7.1c0 3.936-2.618 7.16-5.822 7.16-1.764 0-2.884-.644-5.022-2.9-3.792 2.324-5.5 2.9-9.027 2.9C8.437 45.17 0 34.977 0 22.52 0 10 8.385 0 18.8 0c10.362 0 18.693 10 18.693 22.52a26.252 26.252 0 0 1-1.6 9.294c2.03 2.13 2.777 3.872 2.777 6.2m5.417-34.53A5.767 5.767 0 0 1 48.735.71a5.716 5.716 0 0 1 4.326 2.258c1.123 1.42 1.55 3.1 1.55 6.13v16.973c0 3.163 1.174 4.9 3.26 4.9 1.974 0 3.148-1.74 3.148-4.71V9.1c0-3.29.16-4.065 1.283-5.68A5.663 5.663 0 0 1 66.843.71a5.947 5.947 0 0 1 4.592 2.582c1.122 1.612 1.39 2.84 1.39 6.775V25.36a25.4 25.4 0 0 1-1.656 9.875c-2.457 5.936-7.852 9.937-13.352 9.937a13.673 13.673 0 0 1-9.67-4.388 17.486 17.486 0 0 1-3.63-5.55c-1.39-3.16-1.708-5.033-1.708-9.873V10.2c0-4.2.16-4.97 1.28-6.712m51.556 24.78L93.83 23.04l-1.817 5.228h3.63zM82.4 44.4c-3.258 0-5.82-3.1-5.82-7.1a10.58 10.58 0 0 1 .692-3.743L88.432 4.97C89.447 2.323 91.476.71 93.827.71c2.4 0 4.434 1.614 5.5 4.323l11.273 28.91a9.4 9.4 0 0 1 .64 3.42c0 3.873-2.616 7.034-5.874 7.034a5.23 5.23 0 0 1-3.31-1.226c-1.122-.967-1.657-1.934-2.725-4.71h-10.9c-1.5 4.258-3.257 5.937-6.035 5.937m51.24-13.617c3.9 0 6.41 2.582 6.41 6.582 0 4.13-2.4 6.71-6.2 6.71h-11.212a5.547 5.547 0 0 1-4.97-2.258c-1.44-1.87-1.6-2.645-1.6-8.84V8.71c0-4.84 2.3-8 5.876-8a5.618 5.618 0 0 1 4.54 2.582c1.068 1.742 1.335 2.9 1.335 7.1V30.78h5.82zm12.05-27.747a5.383 5.383 0 0 1 4.38-2.323 5.47 5.47 0 0 1 4.326 2.258c1.23 1.613 1.55 2.97 1.55 6.582V36.2c0 4.97-2.35 8.2-5.875 8.2a5.938 5.938 0 0 1-4.38-2.26c-1.12-1.418-1.5-2.9-1.5-5.935V9.55c0-3.678.267-4.84 1.5-6.517m28 15.81a3.4 3.4 0 0 0 .8.065c2.19 0 3.1-.71 3.1-2.452 0-1.484-1.016-2.26-2.938-2.26h-.962v4.648zm0 17.36c0 4.9-2.35 8.2-5.874 8.2a5.706 5.706 0 0 1-4.91-3.233c-.96-1.87-1.014-2.13-1.014-6.776V9.228c0-3.162.32-4.453 1.6-6.066a5.6 5.6 0 0 1 4.806-2.13h4.97c4.538 0 6.247.324 8.545 1.614 4.433 2.452 7.317 7.937 7.317 13.94 0 8.84-5.716 15.42-13.46 15.42h-1.976V36.2zm38.04-5.422c2.617 0 3.685.324 4.914 1.615a7.28 7.28 0 0 1 1.923 5.033 7.708 7.708 0 0 1-1.87 5.162c-1.174 1.162-2.19 1.484-4.915 1.484h-9.132c-3.472 0-4.06-.13-5.608-1.356a6.482 6.482 0 0 1-2.03-3.226 16.4 16.4 0 0 1-.374-2.84V8.066a8.088 8.088 0 0 1 1.548-4.775A5.734 5.734 0 0 1 198 1.743a5.385 5.385 0 0 1 2.4-.646c.427 0 1.335-.065 2.67-.065h7c1.6 0 2.616.066 3.1.066a5.368 5.368 0 0 1 2.35.646 6.5 6.5 0 0 1 3.1 5.808 7.635 7.635 0 0 1-1.87 5.227c-1.068 1.1-2.35 1.55-4.54 1.55h-5.82v2.967h4.593c2.885 0 4.807 2.065 4.807 5.1 0 3.356-1.816 5.163-5.18 5.163h-4.22v3.226h5.34zm17.022-16.52c-3.633 0-6.037-2.644-6.037-6.58 0-2.453 1.283-4.97 3.045-5.938a6.047 6.047 0 0 1 2.618-.646c.694 0 1.922-.064 3.737-.064h14.69a7.538 7.538 0 0 1 2.777.645c1.816.9 3.15 3.42 3.15 5.938a8.033 8.033 0 0 1-.747 3.356c-1.175 2.452-2.67 3.29-5.66 3.29h-2.67v21.425c0 5.55-2.136 8.712-5.877 8.712a5.525 5.525 0 0 1-4.806-2.97c-.908-1.482-1.12-2.644-1.12-5.613V14.26h-3.1z" fill="#009ee0"/></svg>